<svg width="31" height="31" viewBox="0 0 31 31" fill="none" xmlns="http://www.w3.org/2000/svg">
<path d="M25.4789 8.21436C25.3093 8.21436 25.1413 8.25466 24.986 8.33402C24.4534 8.60651 24.2417 9.26154 24.5142 9.79412C25.424 11.5729 25.8853 13.4927 25.8853 15.5C25.8853 17.5078 25.4243 19.4274 24.5145 21.2058C24.3821 21.4641 24.3585 21.7579 24.4475 22.0335C24.5368 22.3094 24.7278 22.5339 24.9857 22.6659C25.1407 22.7453 25.3068 22.7853 25.4792 22.7853C25.889 22.7853 26.2598 22.559 26.4458 22.1941C27.514 20.1075 28.0553 17.8554 28.0553 15.5C28.0553 13.1455 27.514 10.8934 26.4464 8.80584C26.3143 8.54761 26.0899 8.35665 25.8137 8.26737C25.7039 8.23203 25.5911 8.21436 25.4789 8.21436Z" fill="#78A1D1"></path>
<path d="M13.3295 26.3501C7.3468 26.3501 2.47949 21.4828 2.47949 15.5001C2.47949 9.51746 7.3468 4.65015 13.3295 4.65015C15.7608 4.65015 18.0607 5.43848 19.9802 6.9302C20.5209 7.35025 20.6188 8.12959 20.1985 8.67023C19.7787 9.21087 18.9994 9.30914 18.4588 8.88878C16.9785 7.73806 15.2047 7.13015 13.3295 7.13015C8.71421 7.13015 4.95949 10.8849 4.95949 15.5001C4.95949 20.1154 8.71421 23.8701 13.3295 23.8701C15.2047 23.8701 16.9785 23.2622 18.4588 22.1118C18.9997 21.6912 19.7787 21.7894 20.1985 22.3301C20.6185 22.871 20.5212 23.6497 19.9802 24.0701C18.0607 25.5618 15.7611 26.3501 13.3295 26.3501Z" fill="#4A5397"></path>
<path d="M22.0546 10.3848C21.8993 10.3848 21.7443 10.4186 21.5989 10.4858C21.0561 10.7372 20.8187 11.3836 21.0701 11.9264C21.5912 13.0526 21.8556 14.2551 21.8556 15.5004C21.8556 16.7457 21.5912 17.9481 21.0701 19.0747C20.8187 19.6175 21.0561 20.2638 21.5989 20.5153C21.7434 20.5819 21.8962 20.6157 22.0537 20.6157C22.4753 20.6157 22.8622 20.3686 23.0392 19.9861C23.6939 18.5719 24.0256 17.0628 24.0256 15.5004C24.0256 13.938 23.6939 12.4289 23.0389 11.0147C22.9174 10.7515 22.7007 10.5519 22.4288 10.452C22.307 10.4068 22.1805 10.3848 22.0546 10.3848Z" fill="#78A1D1"></path>
<path d="M13.3306 9.14478C9.82635 9.14478 6.97559 11.9955 6.97559 15.4998C6.97559 19.004 9.82635 21.8548 13.3306 21.8548C16.8348 21.8548 19.6856 19.004 19.6856 15.4998C19.6856 14.9015 19.1989 14.4148 18.6006 14.4148H14.8806C14.2823 14.4148 13.7956 14.9015 13.7956 15.4998C13.7956 16.0981 14.2823 16.5848 14.8806 16.5848H17.3786L17.3128 16.7875C16.7511 18.5204 15.1509 19.6848 13.3306 19.6848C11.0229 19.6848 9.14559 17.8074 9.14559 15.4998C9.14559 13.1921 11.0229 11.3148 13.3306 11.3148C14.2172 11.3148 15.0678 11.5935 15.7914 12.1211C16.0257 12.2919 16.3125 12.361 16.5983 12.3167C16.8847 12.2721 17.1365 12.1183 17.3073 11.8842C17.66 11.4006 17.5537 10.7208 17.0701 10.368C15.973 9.56762 14.6803 9.14478 13.3306 9.14478Z" fill="#4A5397"></path>
<path d="M25.4788 22.9404C25.2813 22.9404 25.0916 22.8946 24.9149 22.804C24.6204 22.6534 24.4018 22.3967 24.2998 22.0814C24.1981 21.7658 24.2251 21.4298 24.3761 21.1353C25.2742 19.3795 25.7299 17.4835 25.7299 15.5001C25.7299 13.5177 25.2742 11.6217 24.3758 9.86463C24.0645 9.2561 24.3063 8.50745 24.9152 8.1959C25.2097 8.04586 25.5488 8.01889 25.861 8.11995C26.1762 8.22163 26.4332 8.44018 26.5839 8.7353C27.6627 10.8449 28.2099 13.1209 28.2099 15.5001C28.2099 17.8806 27.6627 20.1566 26.5836 22.2649C26.3706 22.6816 25.9475 22.9404 25.4788 22.9404ZM25.4784 8.3695C25.3315 8.3695 25.1892 8.40391 25.0562 8.47211C24.5996 8.70554 24.4182 9.26695 24.6517 9.72358C25.5727 11.5247 26.0399 13.4681 26.0399 15.5001C26.0399 17.5331 25.573 19.4765 24.652 21.2764C24.5385 21.4974 24.5181 21.7494 24.5943 21.9863C24.6709 22.2225 24.8346 22.415 25.0556 22.5281C25.1886 22.596 25.3309 22.6307 25.4784 22.6307C25.83 22.6307 26.1474 22.4367 26.3071 22.1242C27.3639 20.0593 27.8999 17.831 27.8999 15.5001C27.8999 13.1702 27.3642 10.9419 26.3077 8.87666C26.1945 8.65563 26.002 8.49164 25.7655 8.41507C25.6719 8.38469 25.5758 8.3695 25.4784 8.3695Z" fill="#78A1D1"></path>
<path d="M13.3299 26.6603C7.17611 26.6603 2.16992 21.6541 2.16992 15.5003C2.16992 9.34652 7.17611 4.34033 13.3299 4.34033C15.8307 4.34033 18.1963 5.15129 20.1707 6.68548C20.4977 6.93937 20.7064 7.30548 20.7578 7.71654C20.8093 8.1276 20.698 8.5337 20.4438 8.86044C20.1899 9.18718 19.8238 9.39581 19.4131 9.44727C19.0017 9.49904 18.5959 9.38713 18.2688 9.13324C16.8435 8.02592 15.1357 7.44033 13.3299 7.44033C8.88545 7.44033 5.26992 11.0562 5.26992 15.5003C5.26992 19.9445 8.88545 23.5603 13.3299 23.5603C15.1357 23.5603 16.8435 22.9747 18.2692 21.8671C18.5962 21.6132 19.0026 21.501 19.4131 21.5528C19.8238 21.6045 20.1899 21.8129 20.4438 22.1399C20.6977 22.467 20.8093 22.8731 20.7578 23.2838C20.7064 23.6946 20.4977 24.0607 20.1707 24.3149C18.1963 25.8494 15.8307 26.6603 13.3299 26.6603ZM13.3299 4.96033C7.51804 4.96033 2.78992 9.68845 2.78992 15.5003C2.78992 21.3122 7.51804 26.0403 13.3299 26.0403C15.6918 26.0403 17.9257 25.2743 19.7906 23.8251C19.9869 23.6726 20.1118 23.4531 20.1428 23.2066C20.1738 22.9602 20.1068 22.7162 19.9543 22.5203C19.8021 22.3241 19.5826 22.1988 19.3362 22.1681C19.0903 22.1371 18.8458 22.2041 18.6498 22.3566C17.1141 23.5498 15.2746 24.1803 13.3299 24.1803C8.54383 24.1803 4.64992 20.2864 4.64992 15.5003C4.64992 10.7142 8.54383 6.82033 13.3299 6.82033C15.2746 6.82033 17.1141 7.45087 18.6492 8.64406C18.8458 8.79658 19.0897 8.86354 19.3356 8.83223C19.5823 8.80123 19.8018 8.6763 19.954 8.48007C20.1065 8.28384 20.1735 8.04018 20.1425 7.79373C20.1115 7.54728 19.9866 7.32749 19.7903 7.17497C17.9257 5.72634 15.6915 4.96033 13.3299 4.96033Z" fill="#4A5397"></path>
<path d="M22.0524 20.7706C21.8726 20.7706 21.6977 20.7318 21.5328 20.6559C20.9122 20.3685 20.641 19.6298 20.928 19.0095C21.4398 17.9037 21.6993 16.7229 21.6993 15.5003C21.6993 14.2776 21.4398 13.0968 20.928 11.9911C20.641 11.3707 20.9122 10.632 21.5325 10.3446C21.8317 10.2061 22.172 10.1924 22.4814 10.3059C22.7924 10.4203 23.04 10.6484 23.1786 10.9491C23.8426 12.3838 24.1793 13.9149 24.1793 15.5003C24.1793 17.0856 23.8426 18.6167 23.1783 20.0511C22.9762 20.4882 22.5341 20.7706 22.0524 20.7706ZM22.0533 10.5396C21.9185 10.5396 21.7873 10.5688 21.6627 10.6261C21.1974 10.8416 20.994 11.3955 21.2095 11.8609C21.7402 13.0075 22.0093 14.2324 22.0093 15.5003C22.0093 16.7682 21.7402 17.993 21.2095 19.1397C20.994 19.605 21.1974 20.1589 21.6627 20.3744C22.119 20.5846 22.6894 20.3707 22.8968 19.9209C23.5419 18.5277 23.8693 17.0403 23.8693 15.5003C23.8693 13.9602 23.5419 12.4728 22.8968 11.0797C22.793 10.8543 22.607 10.6829 22.3739 10.5973C22.2703 10.5589 22.1621 10.5396 22.0533 10.5396Z" fill="#78A1D1"></path>
<path d="M13.3293 22.01C9.73985 22.01 6.81934 19.0898 6.81934 15.5C6.81934 11.9102 9.73985 8.98999 13.3293 8.98999C14.7119 8.98999 16.0366 9.42306 17.16 10.243C17.4272 10.438 17.6027 10.7257 17.6538 11.0533C17.705 11.381 17.6259 11.7087 17.4309 11.9759C17.2356 12.2437 16.9477 12.4192 16.6206 12.4704C16.2923 12.5215 15.9659 12.4418 15.6984 12.2469C15.0021 11.7385 14.1828 11.47 13.3293 11.47C11.1073 11.47 9.29934 13.2779 9.29934 15.5C9.29934 17.7221 11.1073 19.53 13.3293 19.53C15.0821 19.53 16.6234 18.4087 17.164 16.74H14.8793C14.1955 16.74 13.6393 16.1838 13.6393 15.5C13.6393 14.8161 14.1955 14.26 14.8793 14.26H18.5993C19.2832 14.26 19.8393 14.8161 19.8393 15.5C19.8393 19.0898 16.9188 22.01 13.3293 22.01ZM13.3293 9.29999C9.91066 9.29999 7.12934 12.0813 7.12934 15.5C7.12934 18.9187 9.91066 21.7 13.3293 21.7C16.748 21.7 19.5293 18.9187 19.5293 15.5C19.5293 14.9872 19.1121 14.57 18.5993 14.57H14.8793C14.3666 14.57 13.9493 14.9872 13.9493 15.5C13.9493 16.0127 14.3666 16.43 14.8793 16.43H17.164C17.2629 16.43 17.3569 16.4777 17.4151 16.558C17.4734 16.6383 17.4895 16.7422 17.4592 16.8361C16.8764 18.6325 15.2169 19.84 13.3293 19.84C10.9361 19.84 8.98934 17.8932 8.98934 15.5C8.98934 13.1068 10.9361 11.16 13.3293 11.16C14.2491 11.16 15.1314 11.4492 15.8813 11.9961C16.0815 12.1424 16.3273 12.2028 16.5726 12.1638C16.8181 12.1253 17.0338 11.9939 17.1802 11.7933C17.4827 11.3788 17.3916 10.7957 16.9771 10.4935C15.9073 9.7126 14.6459 9.29999 13.3293 9.29999Z" fill="#4A5397"></path>
<path d="M13.33 18.5999C13.179 18.5999 13.0188 18.5862 12.8405 18.5577C12.7562 18.5444 12.6985 18.4647 12.7119 18.3804C12.7255 18.2957 12.8027 18.2368 12.8895 18.2517C13.0513 18.2771 13.1952 18.2899 13.33 18.2899C13.5758 18.2899 13.8226 18.2564 14.0638 18.19C14.1478 18.1677 14.2315 18.2158 14.2544 18.2985C14.2771 18.381 14.2284 18.4666 14.1459 18.4889C13.8781 18.5627 13.6034 18.5999 13.33 18.5999Z" fill="#78A1D1"></path>
<path d="M11.9345 18.2489C11.9097 18.2489 11.8843 18.243 11.861 18.2303C10.8548 17.6881 10.2295 16.6419 10.2295 15.5001C10.2295 13.7908 11.6202 12.4001 13.3295 12.4001C13.9752 12.4001 14.5958 12.5992 15.1244 12.9755C15.1941 13.0251 15.2103 13.1218 15.1607 13.1916C15.1111 13.2616 15.014 13.2778 14.9446 13.2278C14.4691 12.8893 13.9104 12.7101 13.3295 12.7101C11.791 12.7101 10.5395 13.9619 10.5395 15.5001C10.5395 16.5275 11.1021 17.4693 12.008 17.9575C12.0833 17.9981 12.1115 18.0921 12.0709 18.1674C12.043 18.2195 11.9897 18.2489 11.9345 18.2489Z" fill="#78A1D1"></path>
<path d="M14.7243 18.246C14.6694 18.246 14.6161 18.2165 14.5882 18.1647C14.5473 18.0894 14.5752 17.9955 14.6505 17.9546C14.7869 17.8805 14.9171 17.7955 15.0374 17.7022C15.104 17.6495 15.2017 17.6616 15.2547 17.7295C15.3074 17.7971 15.295 17.8944 15.2274 17.9471C15.0938 18.0507 14.9496 18.1449 14.7981 18.227C14.7745 18.2401 14.7494 18.246 14.7243 18.246Z" fill="#78A1D1"></path>
</svg>
